# This file uses centimeters as units for non-parametric coordinates.

mtllib Feisar.mtl
g default
v -0.420000 0.210000 -3.710000
v -0.390000 -0.000000 1.470000
v -0.190000 -0.000000 4.010000
v -0.480000 0.030000 -1.480000
v -0.150000 0.690000 -0.160000
v -0.230000 0.820000 -1.280000
v -0.150000 0.180000 4.070000
v -0.150000 0.480000 1.470000
v -0.220745 0.720000 -1.784089
v 0.940000 -0.040000 -1.270000
v 0.420000 0.210000 -3.710000
v 1.200000 -0.330000 -4.070000
v 1.700000 -0.820000 -3.710000
v 1.710000 -0.820000 -3.170000
v 1.070000 -0.080000 -3.710000
v 1.070000 -0.040000 -1.800000
v 0.390000 -0.000000 1.470000
v 0.190000 -0.000000 4.010000
v 0.480000 0.030000 -1.480000
v 0.440000 0.620000 -1.280000
v 0.150000 0.690000 -0.160000
v 0.230000 0.820000 -1.280000
v 0.370000 -0.020000 3.890000
v 0.150000 0.180000 4.070000
v 0.150000 0.480000 1.470000
v 0.660000 -0.040000 1.470000
v 0.219255 0.720000 -1.784089
v 0.440000 0.520000 -1.770000
v 0.770000 0.570000 -2.020000
v 0.700000 0.400000 -2.960000
v 1.100000 0.250000 -2.020000
v -0.000745 0.210000 -3.724089
v -0.940000 -0.040000 -1.270000
v -1.200000 -0.330000 -4.070000
v -1.700000 -0.820000 -3.710000
v -1.710000 -0.820000 -3.170000
v -1.070000 -0.080000 -3.710000
v -1.070000 -0.040000 -1.800000
v -0.440000 0.620000 -1.280000
v -0.370000 -0.020000 3.890000
v -0.660000 -0.040000 1.470000
v -0.440000 0.520000 -1.770000
v -0.770000 0.570000 -2.020000
v -0.700000 0.400000 -2.960000
v -1.100000 0.250000 -2.020000
v -0.120000 0.000000 -4.070000
v -0.200000 -0.010000 -3.710000
v 0.000000 -0.070000 -4.070000
v 0.000000 -0.160000 -3.710000
v 0.110000 0.000000 -4.070000
v 0.190000 -0.010000 -3.710000
v 0.060000 0.140000 -4.070000
v 0.110000 0.210000 -3.710000
v -0.080000 0.140000 -4.070000
v -0.130000 0.210000 -3.710000
v 0.190000 0.130000 -3.030000
v 0.000000 0.060000 -2.700000
v -0.200000 0.130000 -3.030000
vt 1.000000 0.070313
vt 0.750000 0.070313
vt 0.750000 0.250000
vt 1.000000 0.250000
vt 0.999842 0.000000
vt 0.750158 0.000000
vt 0.750158 0.070313
vt 0.999842 0.070313
vt 1.000000 0.070313
vt 1.000000 0.250000
vt 0.750000 0.250000
vt 0.750000 0.070313
vt 0.500000 0.250000
vt 0.750000 0.250000
vt 0.660156 0.070313
vt 0.500000 0.082031
vt 0.660156 0.070313
vt 0.750000 0.250000
vt 0.500000 0.250000
vt 0.500000 0.082031
vt 0.500000 0.082031
vt 0.660156 0.070313
vt 0.660156 0.000000
vt 0.500000 0.000000
vt 0.355469 0.632813
vt 0.394531 0.632813
vt 0.394531 0.609375
vt 0.355469 0.609375
vt 0.355469 0.632813
vt 0.394531 0.632813
vt 0.394531 0.609375
vt 0.355469 0.632813
vt 0.394531 0.609375
vt 0.394531 0.632813
vt 0.660156 0.070313
vt 0.750000 0.250000
vt 0.750158 0.070313
vt 0.660156 0.070313
vt 0.750000 0.070313
vt 0.750000 0.250000
vt 0.625000 0.250000
vt 0.750000 0.250000
vt 0.750000 0.500000
vt 0.625000 0.500000
vt 0.625000 0.250000
vt 0.750000 0.250000
vt 0.750000 0.500000
vt 0.625000 0.500000
vt 0.625000 0.250000
vt 0.625000 0.500000
vt 0.750000 0.250000
vt 0.625000 0.500000
vt 0.750000 0.500000
vt 0.625000 0.250000
vt 0.625000 0.500000
vt 0.750000 0.250000
vt 0.750000 0.500000
vt 0.625000 0.250000
vt 0.750000 0.250000
vt 0.750000 0.500000
vt 0.500000 0.750000
vt 0.500000 1.000000
vt 0.625000 1.000000
vt 0.625000 0.750000
vt 0.625000 0.750000
vt 0.625000 1.000000
vt 0.500000 1.000000
vt 0.500000 0.750000
vt 0.500000 1.000000
vt 0.500000 0.750000
vt 0.316406 0.882813
vt 0.485277 0.127209
vt 0.316406 1.000000
vt 0.500000 0.500000
vt 0.250000 0.500000
vt 0.250000 0.625000
vt 0.500000 0.500000
vt 0.250000 0.500000
vt 0.250000 0.625000
vt 0.390625 0.625000
vt 0.500000 0.750000
vt 0.250000 0.625000
vt 0.250000 0.750000
vt 0.390625 0.625000
vt 0.500000 0.750000
vt 0.500000 0.500000
vt 0.390625 0.625000
vt 0.250000 0.625000
vt 0.250000 0.500000
vt 0.500000 0.500000
vt 0.500000 0.750000
vt 0.390625 0.625000
vt 0.250000 0.625000
vt 0.250000 0.750000
vt 0.500000 0.500000
vt 0.250000 0.500000
vt 0.250000 0.625000
vt 0.390625 0.625000
vt 0.500000 0.500000
vt 0.390625 0.625000
vt 0.500000 0.750000
vt 0.250000 0.750000
vt 0.500000 0.750000
vt 0.250000 0.625000
vt 0.250000 0.750000
vt 0.250000 0.625000
vt 0.500000 0.750000
vt 0.226563 0.906250
vt 0.250000 0.906250
vt 0.250000 0.500000
vt 0.226563 0.906250
vt 0.250000 0.500000
vt 0.250000 0.906250
vt 0.250000 0.500000
vt 0.195313 0.500000
vt 0.226563 0.906250
vt 0.250000 0.500000
vt 0.226563 0.906250
vt 0.195313 0.500000
vt 0.000000 0.500000
vt 0.113281 0.921875
vt 0.195313 0.500000
vt 0.000000 0.687500
vt 0.226563 0.921875
vt 0.000000 0.500000
vt 0.195313 0.500000
vt 0.113281 0.921875
vt 0.000000 0.687500
vt 0.226563 0.921875
vt 0.625000 0.250000
vt 0.500000 0.250000
vt 0.625000 0.382813
vt 0.500000 0.750000
vt 0.625000 0.750000
vt 0.500000 0.750000
vt 0.500000 0.250000
vt 0.625000 0.382813
vt 0.625000 0.250000
vt 0.625000 0.750000
vt 0.500000 0.250000
vt 0.625000 0.382813
vt 0.500000 0.250000
vt 0.625000 0.382813
vt 0.389294 0.181641
vt 0.454456 0.115234
vt 0.454456 0.181641
vt 0.454456 0.181641
vt 0.454456 0.181641
vt 0.389294 0.115234
vt 0.454456 0.115234
vt 0.316406 0.115234
vt 0.316406 0.181641
vt 0.454456 0.181641
vt 0.316406 0.115234
vt 0.454456 0.181641
vt 0.454456 0.115234
vt 0.454456 0.115234
vt 0.316406 0.181641
vt 0.668514 0.371639
vt 0.675236 0.371639
vt 0.675236 0.378361
vt 0.668514 0.371639
vt 0.675236 0.371639
vt 0.675236 0.378361
vt 0.668514 0.371639
vt 0.675236 0.371639
vt 0.675236 0.378361
vt 0.454456 0.115234
vt 0.454456 0.181641
vt 0.389294 0.181641
vt 0.389294 0.115234
vt 0.389294 0.181641
vt 0.454456 0.115234
vt 0.454456 0.181641
vt 0.389294 0.115234
vt 0.454456 0.115234
vt 0.454456 0.181641
vt 0.454456 0.181641
vt 0.389294 0.181641
vt 0.389294 0.115234
vt 0.389294 0.115234
vt 0.389294 0.181641
vt 0.454456 0.115234
vt 0.316406 0.181641
vt 0.316406 0.115234
vt 0.454456 0.115234
vt 0.486152 0.187393
vt 0.346843 0.118595
vt 0.163714 0.131515
vt 0.163714 0.243485
vt 0.006036 0.214775
vt 0.006036 0.160225
vt 0.485277 0.247791
vt 0.365721 0.218974
vt 0.346843 0.256404
vt 0.333807 0.322438
vt 0.163714 0.282244
vt 0.000000 0.500000
vt 0.226563 0.921875
vt 0.113281 0.921875
vt 0.000000 0.687500
vt 0.250000 0.500000
vt 0.250000 0.500000
vt 0.013485 0.240614
vt 0.333807 0.052562
vt 0.013485 0.134386
vt 0.163714 0.092756
vt 0.000000 0.500000
vt 0.226562 0.921875
vt 0.000000 0.687500
vt 0.113281 0.921875
vn -0.246679 0.957350 -0.150436
vn -0.255790 0.954683 -0.152157
vn -0.247604 0.957084 -0.150611
vn -0.260363 0.953308 -0.153018
vn -0.002706 -0.996749 -0.080528
vn -0.002706 -0.996749 -0.080528
vn -0.002706 -0.996749 -0.080528
vn 0.648301 0.745024 -0.156986
vn 0.652081 0.741246 -0.159198
vn 0.668315 0.724478 -0.168781
vn 0.684935 0.706338 -0.178748
vn 0.000000 0.967139 -0.254248
vn 0.000000 0.967139 -0.254248
vn 0.000000 0.967139 -0.254248
vn 0.000000 0.991803 0.127778
vn 0.000000 0.991803 0.127778
vn 0.000000 0.991803 0.127778
vn 0.000000 0.991803 0.127778
vn 0.475395 0.495890 0.726700
vn 0.477854 0.496392 0.724742
vn 0.476232 0.496061 0.726034
vn 0.482203 0.497272 0.721250
vn 0.994853 -0.101306 0.002122
vn 0.994853 -0.101306 0.002122
vn 0.994853 -0.101306 0.002122
vn 0.784836 0.597086 0.165898
vn 0.784835 0.597086 0.165898
vn 0.784836 0.597086 0.165898
vn 0.670590 0.731426 -0.123791
vn 0.670590 0.731426 -0.123791
vn 0.670590 0.731426 -0.123791
vn 0.673141 0.723898 -0.151169
vn 0.677254 0.719485 -0.153845
vn 0.669165 0.728106 -0.148593
vn 0.731387 0.677855 0.074740
vn 0.729686 0.679543 0.076029
vn 0.722235 0.686815 0.081617
vn 0.711051 0.697377 0.089846
vn 0.716019 0.697842 -0.018238
vn 0.780933 0.594518 0.191550
vn 0.751034 0.655675 0.077704
vn 0.000000 -1.000000 0.000000
vn 0.000000 -1.000000 0.000000
vn 0.000000 -1.000000 0.000000
vn 0.000000 -1.000000 0.000000
vn 0.380431 0.852689 -0.358042
vn 0.380431 0.852689 -0.358042
vn 0.380431 0.852689 -0.358042
vn 0.000000 0.993331 0.115297
vn 0.000000 0.993331 0.115297
vn 0.000000 0.993331 0.115297
vn 0.000000 0.993331 0.115297
vn 0.535598 -0.157528 0.829651
vn 0.535598 -0.157528 0.829651
vn 0.535598 -0.157528 0.829650
vn 0.000000 0.980886 -0.194586
vn 0.000000 0.980886 -0.194586
vn 0.000000 0.980886 -0.194586
vn 0.000000 0.980886 -0.194586
vn 0.008544 0.966865 -0.255145
vn 0.008544 0.966865 -0.255145
vn 0.008544 0.966865 -0.255145
vn 0.000000 -0.999948 -0.010169
vn 0.000000 -0.999948 -0.010169
vn 0.000000 -0.999948 -0.010169
vn 0.000000 -0.999948 -0.010169
vn 0.366304 0.821025 -0.437881
vn 0.366304 0.821025 -0.437881
vn 0.366304 0.821025 -0.437881
vn 0.761175 0.648404 -0.013579
vn 0.761175 0.648404 -0.013579
vn 0.761175 0.648404 -0.013579
vn 0.908331 0.353971 0.222798
vn 0.908331 0.353971 0.222798
vn 0.908331 0.353971 0.222798
vn -0.702975 -0.711165 0.008380
vn -0.702975 -0.711165 0.008380
vn -0.702975 -0.711165 0.008380
vn -0.695727 -0.718191 0.012884
vn -0.695727 -0.718191 0.012884
vn -0.695727 -0.718191 0.012884
vn -0.008574 0.966864 -0.255148
vn -0.008574 0.966864 -0.255148
vn -0.008574 0.966864 -0.255148
vn 0.750007 0.638518 -0.172580
vn 0.750007 0.638518 -0.172580
vn 0.750007 0.638518 -0.172580
vn 0.000000 -0.316227 0.948684
vn 0.000000 -0.316227 0.948684
vn 0.000000 -0.316227 0.948684
vn 0.000000 -0.316227 0.948684
vn 0.706002 0.703542 0.081178
vn 0.707440 0.702144 0.080759
vn 0.711448 0.698218 0.079583
vn 0.711678 0.697991 0.079515
vn 0.683607 0.717788 0.132144
vn 0.683607 0.717788 0.132144
vn 0.683607 0.717788 0.132144
vn -0.143973 -0.989476 -0.014455
vn -0.144046 -0.989465 -0.014470
vn -0.146055 -0.989165 -0.014877
vn -0.146532 -0.989093 -0.014974
vn 0.000000 0.993409 0.114624
vn 0.000000 0.993409 0.114624
vn 0.000000 0.993409 0.114624
vn 0.000000 0.993409 0.114624
vn -0.146542 -0.989160 -0.009386
vn -0.118658 -0.992893 -0.009186
vn -0.145678 -0.989288 -0.009380
vn -0.116464 -0.993153 -0.009170
vn -0.115628 -0.990317 -0.076825
vn -0.115628 -0.990317 -0.076825
vn -0.115628 -0.990317 -0.076825
vn -0.558217 -0.828997 0.034026
vn -0.558217 -0.828997 0.034026
vn -0.558217 -0.828997 0.034026
vn 0.260363 0.953308 -0.153018
vn 0.255790 0.954683 -0.152157
vn 0.247604 0.957084 -0.150611
vn 0.246679 0.957350 -0.150436
vn -0.711678 0.697991 0.079515
vn -0.707440 0.702144 0.080759
vn -0.711448 0.698218 0.079583
vn -0.706002 0.703542 0.081178
vn -0.684935 0.706338 -0.178748
vn -0.652082 0.741246 -0.159198
vn -0.668315 0.724478 -0.168781
vn -0.648302 0.745024 -0.156986
vn -0.674884 0.722471 -0.150221
vn -0.678225 0.718881 -0.152386
vn -0.681381 0.715450 -0.154440
vn -0.482203 0.497272 0.721250
vn -0.477854 0.496392 0.724742
vn -0.476232 0.496061 0.726035
vn -0.475395 0.495890 0.726700
vn -0.994853 -0.101306 0.002122
vn -0.994853 -0.101306 0.002122
vn -0.994853 -0.101306 0.002122
vn -0.784835 0.597086 0.165898
vn -0.784835 0.597086 0.165898
vn -0.784835 0.597086 0.165898
vn -0.673084 0.729189 -0.123459
vn -0.673084 0.729189 -0.123459
vn -0.673084 0.729189 -0.123459
vn -0.731387 0.677855 0.074740
vn -0.722235 0.686815 0.081617
vn -0.729685 0.679543 0.076029
vn -0.711051 0.697377 0.089846
vn -0.751034 0.655675 0.077704
vn -0.716019 0.697842 -0.018238
vn -0.652656 0.742353 -0.151501
vn -0.683607 0.717788 0.132144
vn -0.683607 0.717788 0.132144
vn -0.683607 0.717788 0.132144
vn -0.380430 0.852689 -0.358042
vn -0.380430 0.852689 -0.358042
vn -0.380430 0.852689 -0.358042
vn 0.558217 -0.828997 0.034026
vn 0.558217 -0.828997 0.034026
vn 0.558217 -0.828997 0.034026
vn -0.535598 -0.157528 0.829651
vn -0.535598 -0.157528 0.829651
vn -0.535598 -0.157528 0.829651
vn 0.115628 -0.990317 -0.076825
vn 0.115628 -0.990317 -0.076825
vn 0.115628 -0.990317 -0.076825
vn 0.116464 -0.993153 -0.009170
vn 0.118658 -0.992893 -0.009186
vn 0.145678 -0.989288 -0.009380
vn 0.146542 -0.989160 -0.009386
vn -0.366304 0.821025 -0.437881
vn -0.366304 0.821025 -0.437881
vn -0.366304 0.821025 -0.437881
vn -0.761175 0.648404 -0.013579
vn -0.761175 0.648404 -0.013579
vn -0.761175 0.648404 -0.013579
vn -0.908331 0.353972 0.222798
vn -0.908331 0.353972 0.222798
vn -0.908331 0.353972 0.222798
vn 0.695727 -0.718191 0.012884
vn 0.695727 -0.718191 0.012884
vn 0.695727 -0.718191 0.012884
vn 0.702975 -0.711165 0.008380
vn 0.702975 -0.711165 0.008380
vn 0.702975 -0.711165 0.008380
vn 0.146532 -0.989093 -0.014974
vn 0.144046 -0.989465 -0.014470
vn 0.146055 -0.989165 -0.014877
vn 0.143973 -0.989476 -0.014455
vn -0.750006 0.638519 -0.172581
vn -0.750006 0.638519 -0.172581
vn -0.750006 0.638519 -0.172581
vn 0.002696 -0.996749 -0.080528
vn 0.002696 -0.996749 -0.080528
vn 0.002696 -0.996749 -0.080528
vn 0.000000 -0.996799 -0.079954
vn 0.000000 -0.996799 -0.079954
vn 0.000000 -0.996799 -0.079954
vn -0.761356 0.648181 -0.014099
vn -0.761356 0.648181 -0.014099
vn -0.761356 0.648181 -0.014099
vn 0.761356 0.648181 -0.014099
vn 0.761356 0.648181 -0.014099
vn 0.761356 0.648181 -0.014099
vn -0.941742 0.269069 -0.201802
vn -0.937011 0.292917 -0.190289
vn -0.939224 0.282210 -0.195487
vn -0.935952 0.297803 -0.187900
vn -0.492518 -0.844317 -0.211079
vn -0.578406 -0.799402 -0.162488
vn -0.544639 -0.818621 -0.182285
vn -0.592870 -0.790493 -0.153707
vn 0.000000 0.981615 -0.190870
vn 0.000000 0.981615 -0.190870
vn 0.000000 0.981615 -0.190870
vn 0.000000 0.981615 -0.190870
vn 0.923466 0.329810 -0.196053
vn 0.922829 0.332342 -0.194768
vn 0.922321 0.334340 -0.193752
vn 0.922075 0.335300 -0.193263
vn 0.525318 -0.825500 -0.206375
vn 0.570082 -0.801199 -0.181896
vn 0.600479 -0.782573 -0.164330
vn 0.611910 -0.775086 -0.157510
vn 0.000000 0.000000 -1.000000
vn 0.000000 0.000000 -1.000000
vn 0.000000 0.000000 -1.000000
vn 0.000000 0.000000 -1.000000
vn 0.000000 0.000000 -1.000000
vn 0.000000 0.000000 -1.000000
vn -0.951074 0.302615 -0.062303
vn -0.951074 0.302615 -0.062303
vn -0.951075 0.302615 -0.062303
vn 0.611709 -0.774832 0.159524
vn 0.591483 -0.788020 0.170800
vn 0.605328 -0.779083 0.163120
vn 0.589419 -0.789320 0.171931
vn 0.937476 0.340900 -0.070185
vn 0.937476 0.340900 -0.070185
vn 0.937476 0.340900 -0.070185
vn -0.592024 -0.789365 0.162516
vn -0.585447 -0.793490 0.166210
vn -0.571826 -0.801765 0.173745
vn -0.569679 -0.803037 0.174919
vn 0.000000 0.000000 -1.000000
vn 0.000000 0.000000 -1.000000
vn 0.000000 0.000000 -1.000000
vn 0.681168 0.715226 -0.156404
vn -0.671664 0.725894 -0.148141
vn 0.652656 0.742353 -0.151501
vn -0.780933 0.594518 0.191550
s 1
g GameObject
usemtl initialShadingGroup
f 11/95/1 28/96/2 30/98/3
f 30/98/3 28/96/2 29/97/4
s off
f 1/72/5 32/187/6 4/188/7
s 2
f 15/91/8 30/92/9 31/94/10
f 31/94/10 30/92/9 29/93/11
s off
f 9/69/12 27/70/13 32/71/14
s 3
f 25/21/15 21/22/16 8/24/17
f 8/24/17 21/22/16 5/23/18
s 4
f 28/61/19 16/62/20 29/64/21
f 29/64/21 16/62/20 31/63/22
s off
f 16/102/23 15/103/24 31/104/25
f 21/35/26 10/36/27 20/37/28
f 11/74/29 27/75/30 28/76/31
s 5
f 27/130/32 20/131/33 28/132/34
s 6
f 10/14/35 21/15/36 26/13/37
f 26/13/37 21/15/36 25/16/38
s 7
f 20/140/39 10/133/40 16/134/41
s 8
f 2/189/42 17/190/43 3/192/44
f 3/192/44 17/190/43 18/191/45
s off
f 11/99/46 30/100/47 15/101/48
s 9
f 6/41/49 5/42/50 22/44/51
f 22/44/51 5/42/50 21/43/52
s off
f 23/29/53 24/30/54 18/31/55
s 10
f 9/45/56 6/46/57 27/48/58
f 27/48/58 6/46/57 22/47/59
s off
f 11/193/60 32/187/61 27/194/62
s 11
f 19/195/63 17/190/64 4/188/65
f 4/188/65 17/190/64 2/189/66
s off
f 11/108/67 15/109/68 12/110/69
f 16/120/70 14/121/71 15/122/72
f 10/123/73 14/121/74 16/120/75
f 10/198/76 12/199/77 13/200/78
f 10/198/79 13/200/80 14/201/81
f 1/73/82 9/69/83 32/71/84
f 12/114/85 15/115/86 13/116/87
s 12
f 24/25/88 7/26/89 18/28/90
f 18/28/90 7/26/89 3/27/91
s 13
f 24/2/92 23/3/93 25/1/94
f 25/1/94 23/3/93 26/4/95
s off
f 22/49/96 21/50/97 20/51/98
s 14
f 19/195/99 10/196/100 17/190/101
f 17/190/101 10/196/100 26/197/102
s 15
f 8/5/103 7/6/104 25/8/105
f 25/8/105 7/6/104 24/7/106
s 16
f 26/197/107 23/204/108 17/190/109
f 17/190/109 23/204/108 18/191/110
s off
f 10/196/111 19/195/112 11/193/113
f 11/202/114 12/199/115 10/198/116
s 17
f 43/88/117 42/89/118 44/87/119
f 44/87/119 42/89/118 1/90/120
s 18
f 41/10/121 40/11/122 8/9/123
f 8/9/123 40/11/122 7/12/124
s 19
f 43/82/125 44/80/126 45/83/127
f 45/83/127 44/80/126 37/81/128
s 20
f 9/55/129 39/56/130 6/57/131
s 21
f 45/66/132 38/67/133 43/65/134
f 43/65/134 38/67/133 42/68/135
s off
f 38/105/136 45/106/137 37/107/138
f 5/38/139 39/39/140 33/40/141
f 1/77/142 42/78/143 9/79/144
s 22
f 33/18/145 41/19/146 5/17/147
f 5/17/147 41/19/146 8/20/148
s 23
f 38/139/149 39/142/150 42/143/151
s off
f 6/52/152 39/53/153 5/54/154
f 1/86/155 37/85/156 44/84/157
f 1/203/158 33/208/159 34/209/160
f 40/32/161 3/33/162 7/34/163
f 33/205/164 1/72/165 4/188/166
s 24
f 3/192/167 40/206/168 2/189/169
f 2/189/169 40/206/168 41/207/170
s off
f 1/111/171 34/112/172 37/113/173
f 38/125/174 37/126/175 36/127/176
f 33/128/177 38/125/178 36/127/179
f 33/208/180 36/210/181 35/211/182
f 33/208/183 35/211/184 34/209/185
s 25
f 41/207/186 33/205/187 2/189/188
f 2/189/188 33/205/187 4/188/189
s off
f 34/117/190 35/118/191 37/119/192
f 11/193/193 19/195/194 32/187/195
f 19/195/196 4/188/197 32/187/198
f 35/129/199 36/127/200 37/126/201
f 13/124/202 15/122/203 14/121/204
s 26
f 46/175/205 47/176/206 54/144/207
f 54/144/207 47/176/206 55/177/208
s 27
f 48/178/209 49/179/210 46/145/211
f 46/145/211 49/179/210 47/180/212
s 28
f 52/168/213 54/169/214 53/171/215
f 53/171/215 54/169/214 55/170/216
s 29
f 50/172/217 52/149/218 51/174/219
f 51/174/219 52/149/218 53/173/220
s 30
f 48/147/221 50/150/222 49/182/223
f 49/182/223 50/150/222 51/181/224
s off
f 46/159/225 54/160/226 52/161/227
f 46/162/228 52/163/229 50/164/230
f 47/157/231 58/152/232 55/146/233
s 31
f 51/186/234 56/151/235 49/155/236
f 49/155/236 56/151/235 57/158/237
s off
f 51/153/238 53/156/239 56/154/240
s 32
f 47/183/241 49/148/242 58/185/243
f 58/185/243 49/148/242 57/184/244
s off
f 48/165/245 46/166/246 50/167/247
s 5
f 27/58/32 22/59/248 20/60/33
s 20
f 9/138/129 42/137/249 39/136/130
s 7
f 20/140/39 16/134/41 28/141/250
s 23
f 38/139/149 33/135/251 39/142/150
